<?xml version="1.0" encoding="iso-8859-1"?>
<!-- Generator: Adobe Illustrator 19.0.0, SVG Export Plug-In . SVG Version: 6.00 Build 0)  -->
<svg version="1.1" id="Capa_1" xmlns="http://www.w3.org/2000/svg" xmlns:xlink="http://www.w3.org/1999/xlink" x="0px" y="0px"
	 viewBox="0 0 512 512" style="enable-background:new 0 0 512 512;" xml:space="preserve">
<path style="fill:#FFEC97;" d="M396,271H116V60h280V271z"/>
<rect x="256" y="60" style="fill:#FFDF47;" width="140" height="211"/>
<path style="fill:#715539;" d="M291,188h-70c-22.056,0-40-17.944-40-40s17.944-40,40-40h70c22.056,0,40,17.944,40,40
	S313.056,188,291,188z M221,138c-5.514,0-10,4.486-10,10s4.486,10,10,10h70c5.514,0,10-4.486,10-10s-4.486-10-10-10H221z"/>
<path style="fill:#FF8900;" d="M421,90H91V0h330V90z"/>
<rect x="256" style="fill:#C06100;" width="165" height="90"/>
<path style="fill:#5A422D;" d="M291,108h-35v30h35c5.514,0,10,4.486,10,10s-4.486,10-10,10h-35v30h35c22.056,0,40-17.944,40-40
	S313.056,108,291,108z"/>
<path style="fill:#FFEC97;" d="M396,512H116V301h280V512z"/>
<rect x="256" y="301" style="fill:#FFDF47;" width="140" height="211"/>
<path style="fill:#715539;" d="M291,429h-70c-22.056,0-40-17.944-40-40s17.944-40,40-40h70c22.056,0,40,17.944,40,40
	S313.056,429,291,429z M221,379c-5.514,0-10,4.486-10,10s4.486,10,10,10h70c5.514,0,10-4.486,10-10s-4.486-10-10-10H221z"/>
<path style="fill:#FF8900;" d="M421,331H91v-90h330V331z"/>
<rect x="256" y="241" style="fill:#C06100;" width="165" height="90"/>
<path style="fill:#5A422D;" d="M291,349h-35v30h35c5.514,0,10,4.486,10,10s-4.486,10-10,10h-35v30h35c22.056,0,40-17.944,40-40
	S313.056,349,291,349z"/>
<g>
</g>
<g>
</g>
<g>
</g>
<g>
</g>
<g>
</g>
<g>
</g>
<g>
</g>
<g>
</g>
<g>
</g>
<g>
</g>
<g>
</g>
<g>
</g>
<g>
</g>
<g>
</g>
<g>
</g>
</svg>
