<?xml version="1.0" encoding="iso-8859-1"?>
<!-- Generator: Adobe Illustrator 19.0.0, SVG Export Plug-In . SVG Version: 6.00 Build 0)  -->
<svg version="1.1" id="Capa_1" xmlns="http://www.w3.org/2000/svg" xmlns:xlink="http://www.w3.org/1999/xlink" x="0px" y="0px"
	 viewBox="0 0 512 512" style="enable-background:new 0 0 512 512;" xml:space="preserve">
<g>
	<g>
		<path d="M116,90v141h280V90H116z M291,188h-70c-22.056,0-40-17.944-40-40c0-22.056,17.944-40,40-40h70c22.056,0,40,17.944,40,40
			C331,170.056,313.056,188,291,188z"/>
	</g>
</g>
<g>
	<g>
		<path d="M291,138h-70c-5.514,0-10,4.486-10,10c0,5.514,4.486,10,10,10h70c5.514,0,10-4.486,10-10C301,142.486,296.514,138,291,138
			z"/>
	</g>
</g>
<g>
	<g>
		<rect x="91" y="261" width="330" height="40"/>
	</g>
</g>
<g>
	<g>
		<rect x="91" width="330" height="60"/>
	</g>
</g>
<g>
	<g>
		<path d="M291,379h-70c-5.514,0-10,4.486-10,10c0,5.514,4.486,10,10,10h70c5.514,0,10-4.486,10-10C301,383.486,296.514,379,291,379
			z"/>
	</g>
</g>
<g>
	<g>
		<path d="M116,331v181h280V331H116z M291,429h-70c-22.056,0-40-17.944-40-40c0-22.056,17.944-40,40-40h70c22.056,0,40,17.944,40,40
			C331,411.056,313.056,429,291,429z"/>
	</g>
</g>
<g>
</g>
<g>
</g>
<g>
</g>
<g>
</g>
<g>
</g>
<g>
</g>
<g>
</g>
<g>
</g>
<g>
</g>
<g>
</g>
<g>
</g>
<g>
</g>
<g>
</g>
<g>
</g>
<g>
</g>
</svg>
