<svg height="512pt" viewBox="0 -91 512 512" width="512pt" xmlns="http://www.w3.org/2000/svg"><path d="m485.75 7.5h-459.5c-10.355469 0-18.75 8.394531-18.75 18.75v277.5c0 10.355469 8.394531 18.75 18.75 18.75h459.5c10.355469 0 18.75-8.394531 18.75-18.75v-277.5c0-10.355469-8.394531-18.75-18.75-18.75zm0 0" fill="#68a1d7"/><path d="m485.75 7.5h-57.804688c10.355469 0 18.75 8.394531 18.75 18.75v277.5c0 10.355469-8.394531 18.75-18.75 18.75h57.804688c10.355469 0 18.75-8.394531 18.75-18.75v-277.5c0-10.355469-8.394531-18.75-18.75-18.75zm0 0" fill="#5d8fbf"/><path d="m414.144531 250.5c0 19.882812-16.117187 36-36 36-19.882812 0-36-16.117188-36-36s16.117188-36 36-36c19.882813 0 36 16.117188 36 36zm0 0" fill="#f94530"/><g fill="#ff940c"><path d="m424.1875 214.5c-8.757812 0-16.78125 3.128906-23.023438 8.328125 7.929688 6.605469 12.980469 16.546875 12.980469 27.671875 0 11.128906-5.050781 21.070312-12.980469 27.675781 6.242188 5.195313 14.265626 8.324219 23.023438 8.324219 19.882812 0 36-16.117188 36-36s-16.117188-36-36-36zm0 0"/><path d="m160.332031 286.5h-89.332031c-6.996094 0-12.667969-5.671875-12.667969-12.664062v-60.171876c0-6.992187 5.671875-12.664062 12.667969-12.664062h89.332031c6.996094 0 12.667969 5.671875 12.667969 12.667969v60.167969c0 6.992187-5.671875 12.664062-12.667969 12.664062zm0 0"/><path d="m7.5 63.082031h497v37.917969h-497zm0 0"/></g><path d="m446.695312 63.082031h57.804688v37.917969h-57.804688zm0 0" fill="#de8f24"/><path d="m401.160156 213.601562c-28.5625-17.878906-66.515625 2.546876-66.515625 36.898438 0 34.371094 37.96875 54.769531 66.511719 36.902344 28.828125 17.976562 66.53125-2.75 66.53125-36.902344 0-34.117188-37.667969-54.898438-66.527344-36.898438zm-51.515625 36.898438c0-15.714844 12.785157-28.5 28.5-28.5 18.449219 0 32.054688 17.347656 27.691407 35.257812-3.066407 12.550782-14.386719 21.742188-27.691407 21.742188-15.714843 0-28.5-12.785156-28.5-28.5zm63.253907 26.167969c11.699218-15.511719 11.621093-36.925781 0-52.332031 18.792968-8.105469 39.789062 5.726562 39.789062 26.164062 0 20.449219-21.003906 34.269531-39.789062 26.167969zm0 0"/><path d="m160.332031 193.5h-89.332031c-11.121094 0-20.167969 9.046875-20.167969 20.167969v60.167969c0 11.117187 9.046875 20.164062 20.167969 20.164062h89.332031c11.121094 0 20.167969-9.046875 20.167969-20.164062v-60.167969c0-11.121094-9.046875-20.167969-20.167969-20.167969zm-18.5 46h23.667969v8.5h-23.667969zm-52.332031 8.5h-23.667969v-8.5h23.667969zm70.832031 31h-89.332031c-2.847656 0-5.167969-2.316406-5.167969-5.164062v-10.835938h23.667969v5.667969c0 4.140625 3.359375 7.5 7.5 7.5s7.5-3.359375 7.5-7.5v-50c0-4.144531-3.359375-7.5-7.5-7.5s-7.5 3.355469-7.5 7.5v5.832031h-23.667969v-10.832031c0-2.851563 2.320313-5.167969 5.167969-5.167969h89.332031c2.851563 0 5.167969 2.316406 5.167969 5.167969v10.832031h-23.667969v-5.832031c0-4.144531-3.355469-7.5-7.5-7.5-4.140625 0-7.5 3.355469-7.5 7.5v50c0 4.140625 3.359375 7.5 7.5 7.5 4.144531 0 7.5-3.359375 7.5-7.5v-5.667969h23.667969v10.835938c0 2.847656-2.316406 5.164062-5.167969 5.164062zm0 0"/><path d="m485.75 0h-380.082031c-4.144531 0-7.5 3.355469-7.5 7.5s3.355469 7.5 7.5 7.5h380.082031c6.203125 0 11.25 5.046875 11.25 11.25v29.332031h-482v-29.332031c0-6.203125 5.046875-11.25 11.25-11.25h51.417969c4.140625 0 7.5-3.355469 7.5-7.5s-3.359375-7.5-7.5-7.5h-51.417969c-14.472656 0-26.25 11.773438-26.25 26.25v277.5c0 14.476562 11.777344 26.25 26.25 26.25h459.5c14.472656 0 26.25-11.773438 26.25-26.25v-277.5c0-14.476562-11.777344-26.25-26.25-26.25zm0 315h-459.5c-6.203125 0-11.25-5.046875-11.25-11.25v-195.25h305c4.140625 0 7.5-3.355469 7.5-7.5s-3.359375-7.5-7.5-7.5h-305v-22.917969h482v22.917969h-149c-4.140625 0-7.5 3.355469-7.5 7.5s3.359375 7.5 7.5 7.5h149v195.25c0 6.203125-5.046875 11.25-11.25 11.25zm0 0"/></svg>