<?xml version="1.0" encoding="iso-8859-1"?>
<!-- Generator: Adobe Illustrator 21.0.0, SVG Export Plug-In . SVG Version: 6.00 Build 0)  -->
<svg xmlns="http://www.w3.org/2000/svg" xmlns:xlink="http://www.w3.org/1999/xlink" version="1.1" id="Capa_1" x="0px" y="0px" viewBox="0 0 512 512" style="enable-background:new 0 0 512 512;" xml:space="preserve" width="512" height="512">
<g>
	<path style="fill:#EFEEEE;" d="M488,92H24c-13.234,0-24,10.766-24,24v280c0,13.234,10.766,24,24,24h464c13.234,0,24-10.766,24-24   V116C512,102.766,501.234,92,488,92z"/>
	<path style="fill:#CECDCB;" d="M48,372V92H24c-13.234,0-24,10.766-24,24v280c0,13.234,10.766,24,24,24h464   c13.234,0,24-10.766,24-24H72C58.766,396,48,385.234,48,372z"/>
	<g>
		<path style="fill:#7C7B74;" d="M200,148H56c-4.418,0-8,3.582-8,8v160c0,4.418,3.582,8,8,8h144c4.418,0,8-3.582,8-8V156    C208,151.582,204.418,148,200,148z"/>
		<path style="fill:#81AADD;" d="M128,180c-22.056,0-40,17.944-40,40s17.944,40,40,40s40-17.944,40-40S150.056,180,128,180z"/>
		<path style="fill:#81AADD;" d="M152,260h-48c-13.255,0-24,10.745-24,24v40h96v-40C176,270.745,165.255,260,152,260z"/>
	</g>
	<g>
		<path style="fill:#FAD677;" d="M384,164H248c-4.418,0-8-3.582-8-8s3.582-8,8-8h136c4.418,0,8,3.582,8,8S388.418,164,384,164z"/>
		<path style="fill:#ADACA8;" d="M312,204h-64c-4.418,0-8-3.582-8-8s3.582-8,8-8h64c4.418,0,8,3.582,8,8S316.418,204,312,204z"/>
		<path style="fill:#ADACA8;" d="M456,204H344c-4.418,0-8-3.582-8-8s3.582-8,8-8h112c4.418,0,8,3.582,8,8S460.418,204,456,204z"/>
		<path style="fill:#ADACA8;" d="M424,244H248c-4.418,0-8-3.582-8-8s3.582-8,8-8h176c4.418,0,8,3.582,8,8S428.418,244,424,244z"/>
		<path style="fill:#ADACA8;" d="M344,284h-96c-4.418,0-8-3.582-8-8s3.582-8,8-8h96c4.418,0,8,3.582,8,8S348.418,284,344,284z"/>
		<path style="fill:#ADACA8;" d="M424,284h-48c-4.418,0-8-3.582-8-8s3.582-8,8-8h48c4.418,0,8,3.582,8,8S428.418,284,424,284z"/>
		<path style="fill:#ADACA8;" d="M304,324h-56c-4.418,0-8-3.582-8-8s3.582-8,8-8h56c4.418,0,8,3.582,8,8S308.418,324,304,324z"/>
		<path style="fill:#ADACA8;" d="M424,324h-88c-4.418,0-8-3.582-8-8s3.582-8,8-8h88c4.418,0,8,3.582,8,8S428.418,324,424,324z"/>
	</g>
	<g>
		<path style="fill:#FAD677;" d="M96,364H56c-4.418,0-8-3.582-8-8s3.582-8,8-8h40c4.418,0,8,3.582,8,8S100.418,364,96,364z"/>
		<path style="fill:#FAD677;" d="M200,364h-72c-4.418,0-8-3.582-8-8s3.582-8,8-8h72c4.418,0,8,3.582,8,8S204.418,364,200,364z"/>
	</g>
</g>















</svg>
