<svg height="512pt" viewBox="0 -2 512.00048 512" width="512pt" xmlns="http://www.w3.org/2000/svg"><path d="m298.101562 431.261719v7.5c0 19.453125-15.921874 35.367187-35.375 35.367187h-198.6875c-19.464843 0-35.378906-15.914062-35.378906-35.367187v-7.5c0-19.453125 15.914063-35.375 35.378906-35.375h198.6875c13.722657 0 25.679688 7.917969 31.539063 19.402343 2.453125 4.808594 3.835937 10.242188 3.835937 15.972657zm0 0" fill="#ffb52d"/><path d="m298.101562 431.261719v7.5c0 19.453125-15.921874 35.367187-35.375 35.367187h-193.960937c-2.449219-4.808594-3.835937-10.242187-3.835937-15.972656v-7.488281c0-19.457031 15.921874-35.378907 35.378906-35.378907h193.957031c2.453125 4.808594 3.835937 10.242188 3.835937 15.972657zm0 0" fill="#ffc14f"/><path d="m308.128906 499.976562h-289.5c-6.109375 0-11.101562-4.996093-11.101562-11.101562v-17.113281c0-6.105469 4.992187-11.101563 11.101562-11.101563h289.5c6.105469 0 11.101563 4.996094 11.101563 11.101563v17.113281c0 6.105469-4.996094 11.101562-11.101563 11.101562zm0 0" fill="#ffa90b"/><path d="m369.570312 357.699219c-.613281.941406-1.335937 1.835937-2.160156 2.667969l-2.328125 2.328124c-6.40625 6.40625-16.894531 6.40625-23.300781 0l-174.785156-174.785156c-6.40625-6.402344-6.40625-16.894531 0-23.296875l2.328125-2.332031c3.050781-3.0625 7.046875-4.65625 11.074219-4.796875 4.414062-.160156 8.882812 1.445313 12.234374 4.796875l174.777344 174.777344c5.589844 5.589844 6.304688 14.253906 2.160156 20.640625zm0 0" fill="#f29500"/><path d="m369.570312 357.699219c-4.410156.160156-8.875-1.445313-12.230468-4.800781l-174.785156-174.785157c-5.582032-5.582031-6.292969-14.253906-2.15625-20.628906 4.414062-.160156 8.882812 1.445313 12.234374 4.796875l174.777344 174.777344c5.589844 5.589844 6.304688 14.253906 2.160156 20.640625zm0 0" fill="#ffa90b"/><path d="m128.011719 310.105469-89.726563-89.726563 182.800782-182.796875 89.726562 89.726563zm0 0" fill="#ffc14f"/><path d="m221.082031 37.578125 58.921875 58.917969-80.550781 80.550781c-22.90625 22.90625-60.042969 22.90625-82.949219 0l-17.445312-17.445313zm0 0" fill="#ffcd71"/><path d="m197.53125 64.117188 86.746094 86.742187c13.03125 13.035156 34.355468 13.035156 47.386718 0 13.03125-13.03125 13.03125-34.355469 0-47.386719l-86.742187-86.742187c-13.03125-13.03125-34.355469-13.03125-47.390625 0-13.03125 13.03125-13.03125 34.355469 0 47.386719zm0 0" fill="#ffa90b"/><path d="m21.445312 240.203125 86.746094 86.746094c13.03125 13.03125 34.355469 13.03125 47.386719 0s13.03125-34.355469 0-47.390625l-86.742187-86.742188c-13.03125-13.03125-34.355469-13.03125-47.390626 0-13.03125 13.03125-13.03125 34.355469 0 47.386719zm0 0" fill="#ffa90b"/><path d="m378.917969 308.933594 112.273437 112.273437c5.027344 5.027344 8.644532 10.933594 10.828125 17.25 1.75 4.964844 2.621094 10.175781 2.621094 15.386719 0 11.816406-4.488281 23.648438-13.464844 32.625-17.9375 17.9375-47.3125 17.9375-65.25 0l-112.269531-112.273438c-2.859375-2.855468-2.859375-7.488281 0-10.34375l54.902344-54.902343c2.871094-2.871094 7.503906-2.871094 10.359375-.015625zm0 0" fill="#ae583e"/><path d="m378.917969 308.933594 112.273437 112.273437c5.027344 5.027344 8.644532 10.933594 10.828125 17.25-1.039062 1.304688-2.144531 2.542969-3.34375 3.738281-17.949219 17.953126-47.296875 17.953126-65.246093 0l-99.058594-99.058593 34.191406-34.191407c2.867188-2.867187 7.5-2.867187 10.355469-.011718zm0 0" fill="#c0694e"/><path d="m496.289062 415.921875-28.652343-28.648437c-2.941407-2.941407-7.710938-2.941407-10.648438 0-2.941406 2.929687-2.941406 7.699218 0 10.640624l28.648438 28.660157c24.152343 24.117187 7.117187 65.8125-27.285157 65.8125-10.351562 0-20.039062-3.984375-27.285156-11.242188l-112.0625-112.0625c.753906-.753906 55.851563-55.84375 54.582032-54.570312l62.109374 62.109375c2.941407 2.941406 7.699219 2.941406 10.640626 0 2.941406-2.941406 2.941406-7.710938 0-10.652344l-67.429688-67.429688c-2.960938-2.957031-7.722656-2.929687-10.652344 0l-14.476562 14.476563-108.980469-108.992187 41.660156-41.660157c6.363281 3.882813 13.703125 5.960938 21.382813 5.960938 10.984375 0 21.28125-4.246094 29.011718-11.976563 15.964844-15.960937 15.976563-42.015625 0-58.011718-66.488281-66.480469-87.101562-87.113282-87.558593-87.519532-3.03125-2.851562-7.789063-2.710937-10.640625.320313-2.851563 3.035156-2.699219 7.792969.332031 10.644531.105469.101562 87.074219 87.066406 87.214844 87.207031 4.878906 4.878907 7.5625 11.402344 7.5625 18.359375 0 23.167969-28.050781 34.59375-44.28125 18.359375-90.253907-90.734375-87.96875-86.875-91.023438-92.445312-8.828125-15.855469.988281-35.730469 18.972657-38.277344 4.125-.582031 6.988281-4.398437 6.40625-8.515625-.582032-4.113281-4.398438-6.976562-8.511719-6.3945312-29.1875 4.1328122-44.5 36.9492192-29.195313 61.9609372l-85.902344 85.902344c-2.941406 2.941406-2.941406 7.699219 0 10.640625 2.941407 2.941406 7.710938 2.941406 10.652344 0l85.089844-85.089844 79.035156 79.027344c-38.710937 38.707031-74.167968 74.167969-117.996094 117.996094l-79.027343-79.035157 11.597656-11.597656c2.941406-2.941406 2.941406-7.707031 0-10.648437-2.941406-2.941407-7.703125-2.941407-10.644531 0l-12.40625 12.40625c-6.363282-3.894531-13.714844-5.972657-21.394532-5.972657-10.980468 0-21.28125 4.257813-29 11.976563-8 7.992187-11.996093 18.5-11.996093 29.011719 0 10.5 3.996093 21 11.996093 29.003906l86.703126 86.695312c25.367187 25.398438 69.980468 7.902344 69.980468-29.003906 0-7.679687-2.078125-15.027344-5.972656-21.382812l41.683594-41.671875 108.980468 108.992187-14.476562 14.476563c-2.941406 2.941406-2.941406 7.710937 0 10.652343l117.382812 117.382813c10.101563 10.097656 23.570313 15.648437 37.9375 15.648437 47.8125 0 71.480469-57.976562 37.9375-91.523437zm-382.808593-94.214844-86.695313-86.703125c-10.128906-10.121094-10.128906-26.59375 0-36.710937 8.507813-8.527344 21.367188-9.6875 30.96875-4.316407 5.867188 3.214844 2.957032 2.007813 92.445313 91.011719 4.765625 4.765625 7.5625 11.265625 7.5625 18.359375 0 23.15625-28.039063 34.605469-44.28125 18.359375zm105.6875-92.054687 14.976562-14.976563 108.992188 108.992188-14.976563 14.976562zm0 0"/><path d="m308.132812 453.136719h-4.980468c1.605468-4.496094 2.480468-9.335938 2.480468-14.375v-7.5c0-23.652344-19.257812-42.90625-42.90625-42.90625h-198.6875c-23.664062 0-42.90625 19.253906-42.90625 42.90625.261719 5.21875-.972656 12.214843 2.476563 21.875h-4.976563c-10.28125 0-18.632812 8.351562-18.632812 18.621093v17.117188c0 10.28125 8.351562 18.632812 18.632812 18.632812h289.5c10.269532 0 18.628907-8.351562 18.628907-18.632812v-17.117188c0-10.269531-8.359375-18.621093-18.628907-18.621093zm-271.941406-21.875c0-15.347657 12.488282-27.847657 27.847656-27.847657h198.6875c15.347657 0 27.847657 12.5 27.847657 27.847657-.394531 4.746093 1.535156 12.71875-4.007813 21.875h-246.371094c-5.542968-9.15625-3.609374-17.109375-4.003906-21.875zm275.511719 57.613281c0 1.9375-1.632813 3.574219-3.570313 3.574219h-289.5c-1.9375 0-3.574218-1.636719-3.574218-3.574219v-17.117188c0-1.9375 1.636718-3.5625 3.574218-3.5625h289.5c1.9375 0 3.570313 1.625 3.570313 3.5625zm0 0"/></svg>