<svg id="Capa_1" enable-background="new 0 0 426.703 426.703" height="512" viewBox="0 0 426.703 426.703" width="512" xmlns="http://www.w3.org/2000/svg"><g><path d="m16.678 54.902h393.347c9.211 0 16.678 7.467 16.678 16.678v314.12c0 9.211-7.467 16.678-16.678 16.678h-393.347c-9.211 0-16.678-7.467-16.678-16.678v-314.121c0-9.21 7.467-16.677 16.678-16.677z" fill="#62667c"/><path d="m45.871 24.325h75.053c6.142 0 11.12 4.979 11.12 11.12v304.853c0 6.142-4.979 11.12-11.12 11.12h-75.053c-6.142 0-11.12-4.979-11.12-11.12v-304.853c-.001-6.142 4.978-11.12 11.12-11.12z" fill="#9a9eaf"/><path d="m173.278 83.74h213.112c3.584 0 6.489 2.905 6.489 6.489v75.578c0 3.584-2.905 6.489-6.489 6.489h-213.112c-3.584 0-6.489-2.905-6.489-6.489v-75.578c0-3.583 2.905-6.489 6.489-6.489z" fill="#4f5363"/><path d="m179.767 96.718h200.134v62.59h-200.134z" fill="#69b0ee"/><g fill="#9a9eaf"><path d="m172.346 201.568h45.871c3.069 0 5.558 2.488 5.558 5.558v24.301c0 3.069-2.488 5.558-5.558 5.558h-45.871c-3.069 0-5.558-2.488-5.558-5.558v-24.301c.001-3.07 2.489-5.558 5.558-5.558z"/><path d="m256.901 201.568h45.871c3.069 0 5.558 2.488 5.558 5.558v24.301c0 3.069-2.488 5.558-5.558 5.558h-45.871c-3.069 0-5.558-2.488-5.558-5.558v-24.301c.001-3.07 2.489-5.558 5.558-5.558z"/><path d="m341.451 201.568h45.871c3.069 0 5.558 2.488 5.558 5.558v24.301c0 3.069-2.488 5.558-5.558 5.558h-45.871c-3.069 0-5.558-2.488-5.558-5.558v-24.301c0-3.07 2.489-5.558 5.558-5.558z"/><path d="m172.346 260.64h45.871c3.069 0 5.558 2.488 5.558 5.558v24.301c0 3.069-2.488 5.558-5.558 5.558h-45.871c-3.069 0-5.558-2.488-5.558-5.558v-24.301c.001-3.07 2.489-5.558 5.558-5.558z"/><path d="m256.901 260.64h45.871c3.069 0 5.558 2.488 5.558 5.558v24.301c0 3.069-2.488 5.558-5.558 5.558h-45.871c-3.069 0-5.558-2.488-5.558-5.558v-24.301c.001-3.07 2.489-5.558 5.558-5.558z"/><path d="m341.451 260.64h45.871c3.069 0 5.558 2.488 5.558 5.558v24.301c0 3.069-2.488 5.558-5.558 5.558h-45.871c-3.069 0-5.558-2.488-5.558-5.558v-24.301c0-3.07 2.489-5.558 5.558-5.558z"/><path d="m172.346 319.712h45.871c3.069 0 5.558 2.488 5.558 5.558v24.301c0 3.069-2.488 5.558-5.558 5.558h-45.871c-3.069 0-5.558-2.488-5.558-5.558v-24.301c.001-3.069 2.489-5.558 5.558-5.558z"/><path d="m256.901 319.712h45.871c3.069 0 5.558 2.488 5.558 5.558v24.301c0 3.069-2.488 5.558-5.558 5.558h-45.871c-3.069 0-5.558-2.488-5.558-5.558v-24.301c.001-3.069 2.489-5.558 5.558-5.558z"/><path d="m341.451 319.712h45.871c3.069 0 5.558 2.488 5.558 5.558v24.301c0 3.069-2.488 5.558-5.558 5.558h-45.871c-3.069 0-5.558-2.488-5.558-5.558v-24.301c0-3.069 2.489-5.558 5.558-5.558z"/></g><path d="m223.296 159.314h-7.837l61.159-62.596h7.832z" fill="#eeefee" opacity=".5"/><path d="m275.093 159.314h-33.917l61.153-62.596h33.923z" fill="#eeefee" opacity=".5"/></g></svg>