<svg xmlns="http://www.w3.org/2000/svg" height="511pt" version="1.1" viewBox="1 -42 511.99998 511" width="511pt">
<g id="surface1">
<path d="M 512 32.171875 L 512 395.472656 C 512 412.964844 497.820312 427.140625 480.328125 427.140625 L 31.660156 427.140625 C 14.179688 427.140625 0 412.964844 0 395.472656 L 0 32.171875 C 0 14.679688 14.179688 0.5 31.660156 0.5 L 480.328125 0.5 C 497.820312 0.5 512 14.679688 512 32.171875 Z M 512 32.171875 " style=" stroke:none;fill-rule:nonzero;fill:rgb(90.196078%,90.196078%,90.196078%);fill-opacity:1;" />
<path d="M 512 32.171875 L 512 86.179688 L 0 86.179688 L 0 32.171875 C 0 14.679688 14.179688 0.5 31.660156 0.5 L 480.328125 0.5 C 497.820312 0.5 512 14.679688 512 32.171875 Z M 512 32.171875 " style=" stroke:none;fill-rule:nonzero;fill:rgb(80%,80%,80%);fill-opacity:1;" />
<path d="M 74.1875 43.339844 C 74.1875 54.304688 65.300781 63.195312 54.335938 63.195312 C 43.371094 63.195312 34.480469 54.304688 34.480469 43.339844 C 34.480469 32.375 43.371094 23.488281 54.335938 23.488281 C 65.300781 23.488281 74.1875 32.375 74.1875 43.339844 Z M 74.1875 43.339844 " style=" stroke:none;fill-rule:nonzero;fill:rgb(98.039216%,43.921569%,69.803922%);fill-opacity:1;" />
<path d="M 198.535156 43.339844 C 198.535156 54.304688 189.644531 63.195312 178.679688 63.195312 C 167.714844 63.195312 158.828125 54.304688 158.828125 43.339844 C 158.828125 32.375 167.714844 23.488281 178.679688 23.488281 C 189.644531 23.488281 198.535156 32.375 198.535156 43.339844 Z M 198.535156 43.339844 " style=" stroke:none;fill-rule:nonzero;fill:rgb(28.627451%,74.117647%,56.470588%);fill-opacity:1;" />
<path d="M 136.359375 43.339844 C 136.359375 54.304688 127.472656 63.195312 116.507812 63.195312 C 105.542969 63.195312 96.652344 54.304688 96.652344 43.339844 C 96.652344 32.375 105.542969 23.488281 116.507812 23.488281 C 127.472656 23.488281 136.359375 32.375 136.359375 43.339844 Z M 136.359375 43.339844 " style=" stroke:none;fill-rule:nonzero;fill:rgb(100%,81.568627%,38.039216%);fill-opacity:1;" />
<path d="M 34.523438 116.132812 L 165.140625 116.132812 L 165.140625 393.019531 L 34.523438 393.019531 Z M 34.523438 116.132812 " style=" stroke:none;fill-rule:nonzero;fill:rgb(98.039216%,43.921569%,69.803922%);fill-opacity:1;" />
<path d="M 200.59375 116.132812 L 477.476562 116.132812 L 477.476562 233.628906 L 200.59375 233.628906 Z M 200.59375 116.132812 " style=" stroke:none;fill-rule:nonzero;fill:rgb(100%,81.568627%,38.039216%);fill-opacity:1;" />
<path d="M 200.59375 275.523438 L 477.476562 275.523438 L 477.476562 393.019531 L 200.59375 393.019531 Z M 200.59375 275.523438 " style=" stroke:none;fill-rule:nonzero;fill:rgb(25.882353%,75.294118%,88.627451%);fill-opacity:1;" />
<path d="M 132.742188 166.285156 L 66.917969 166.285156 C 62.589844 166.285156 59.082031 162.777344 59.082031 158.449219 C 59.082031 154.121094 62.589844 150.613281 66.917969 150.613281 L 132.742188 150.613281 C 137.074219 150.613281 140.582031 154.121094 140.582031 158.449219 C 140.582031 162.777344 137.070312 166.285156 132.742188 166.285156 Z M 132.742188 166.285156 " style=" stroke:none;fill-rule:nonzero;fill:rgb(14.117647%,19.215686%,25.882353%);fill-opacity:1;" />
<path d="M 132.742188 213.433594 L 66.917969 213.433594 C 62.589844 213.433594 59.082031 209.925781 59.082031 205.597656 C 59.082031 201.269531 62.589844 197.761719 66.917969 197.761719 L 132.742188 197.761719 C 137.074219 197.761719 140.582031 201.269531 140.582031 205.597656 C 140.582031 209.925781 137.070312 213.433594 132.742188 213.433594 Z M 132.742188 213.433594 " style=" stroke:none;fill-rule:nonzero;fill:rgb(14.117647%,19.215686%,25.882353%);fill-opacity:1;" />
<path d="M 132.742188 260.582031 L 66.917969 260.582031 C 62.589844 260.582031 59.082031 257.074219 59.082031 252.746094 C 59.082031 248.417969 62.589844 244.910156 66.917969 244.910156 L 132.742188 244.910156 C 137.074219 244.910156 140.582031 248.417969 140.582031 252.746094 C 140.582031 257.074219 137.070312 260.582031 132.742188 260.582031 Z M 132.742188 260.582031 " style=" stroke:none;fill-rule:nonzero;fill:rgb(14.117647%,19.215686%,25.882353%);fill-opacity:1;" />
<path d="M 132.742188 307.730469 L 66.917969 307.730469 C 62.589844 307.730469 59.082031 304.222656 59.082031 299.894531 C 59.082031 295.566406 62.589844 292.058594 66.917969 292.058594 L 132.742188 292.058594 C 137.074219 292.058594 140.582031 295.566406 140.582031 299.894531 C 140.582031 304.222656 137.070312 307.730469 132.742188 307.730469 Z M 132.742188 307.730469 " style=" stroke:none;fill-rule:nonzero;fill:rgb(14.117647%,19.215686%,25.882353%);fill-opacity:1;" />
<path d="M 132.742188 354.878906 L 66.917969 354.878906 C 62.589844 354.878906 59.082031 351.371094 59.082031 347.042969 C 59.082031 342.714844 62.589844 339.203125 66.917969 339.203125 L 132.742188 339.203125 C 137.074219 339.203125 140.582031 342.714844 140.582031 347.042969 C 140.582031 351.371094 137.070312 354.878906 132.742188 354.878906 Z M 132.742188 354.878906 " style=" stroke:none;fill-rule:nonzero;fill:rgb(14.117647%,19.215686%,25.882353%);fill-opacity:1;" />
</g>
</svg>