<svg height="511pt" viewBox="0 -77 511.99977 511" width="511pt" xmlns="http://www.w3.org/2000/svg"><path d="m502.847656 100.027344c-6.523437-17.664063-13.011718-35.558594-22.648437-50.507813-6.644531-10.308593-19.5625-14.675781-31.144531-10.632812-23.023438 8.042969-46.460938 8.847656-70.757813-2.210938-80.925781-36.832031-141.582031-39.480469-228.328125 0-24.390625 11.101563-48.019531 10.359375-71.871094 1.820313-10.144531-3.632813-21.5-1.09375-28.835937 6.796875-14.039063 15.105469-28.085938 33.820312-38.433594 52.425781-5.390625 9.691406-4.210937 21.703125 2.921875 30.195312 20.570312 24.484376 39 77.882813 56.328125 104.222657h370.65625c17.539063-26.65625 36.203125-81.03125 57.074219-105.097657 6.460937-7.449218 8.457031-17.765624 5.039062-27.011718zm0 0" fill="#2c5771"/><path d="m502.847656 100.027344c-6.523437-17.660156-13.011718-35.558594-22.648437-50.507813-5.285157-8.199219-14.546875-12.625-23.941407-12.058593 3.597657 8.476562 6.824219 17.28125 10.054688 26.03125 3.417969 9.242187 1.429688 19.558593-5.027344 27-5.171875 5.960937-10.207031 13.785156-15.125 22.585937-28.4375 50.894531-82.089844 82.523437-140.390625 82.523437h-254.964843c6.597656 13.949219 13.007812 27.011719 19.273437 36.535157h370.660156c17.539063-26.660157 36.203125-81.046875 57.078125-105.105469 6.460938-7.445312 8.445313-17.757812 5.03125-27.003906zm0 0" fill="#24475c"/><path d="m70.078125 232.136719h370.660156v50.664062h-370.660156zm0 0" fill="#e0a812"/><path d="m320.546875 128.53125c-.421875-7.101562-2.261719-14.058594-5.394531-20.445312-6.214844-12.667969-5.367188-25.144532 2.351562-37.429688.566406-.902344.445313-2.074219-.308594-2.828125l-10.4375-10.4375c-.800781-.800781-2.070312-.898437-2.96875-.210937-14.769531 11.277343-30.132812 10.515624-45.984374.027343-1.109376-.734375-2.539063-.734375-3.648438 0-15.847656 10.488281-31.214844 11.25-45.984375-.027343-.898437-.6875-2.167969-.589844-2.96875.210937l-10.4375 10.4375c-.753906.753906-.875 1.925781-.308594 2.828125 7.722657 12.285156 8.566407 24.761719 2.351563 37.429688-3.742188 7.632812-5.511719 16.089843-5.507813 23.203124-.859375 33.984376 20.390625 55.457032 55.054688 69.335938 6.175781 2.472656 13.078125 2.472656 19.25 0 35.59375-14.25 57.046875-36.503906 54.941406-72.09375zm0 0" fill="#ffbf14"/><path d="m320.546875 128.53125c-.421875-7.101562-2.261719-14.058594-5.394531-20.445312-6.214844-12.667969-5.367188-25.144532 2.351562-37.429688.566406-.902344.445313-2.074219-.308594-2.828125l-10.4375-10.4375c-.800781-.800781-2.070312-.898437-2.96875-.210937-6.421874 4.902343-12.953124 7.527343-19.585937 8.070312-5.535156 10.980469-5.613281 22.109375-.078125 33.390625 3.128906 6.386719 4.972656 13.34375 5.390625 20.445313 2.109375 35.589843-19.34375 57.84375-54.9375 72.09375-1.65625.664062-3.363281 1.144531-5.097656 1.449218 5.1875 2.914063 10.824219 5.574219 16.875 7.996094 6.175781 2.472656 13.078125 2.472656 19.25 0 35.59375-14.25 57.046875-36.503906 54.941406-72.09375zm0 0" fill="#e0a812"/><path d="m454.449219 293.40625-13.710938-10.605469h-370.660156l-13.710937 10.605469c-8.5625 6.617188-6.3125 20.144531 3.949218 23.570312 129.976563 43.40625 260.089844 43.445313 390.179688 0 10.265625-3.425781 12.511718-16.953124 3.953125-23.570312zm0 0" fill="#24475c"/><path d="m190.070312 104.78125c-4.265624 8.691406-6.265624 18.238281-6.277343 26.414062-.832031 34.484376 19.277343 60.1875 59.773437 76.398438 7.992188 3.199219 16.808594 3.210938 24.832032 0 41.710937-16.699219 61.777343-43.449219 59.644531-79.507812-.484375-8.128907-2.550781-15.96875-6.148438-23.304688-5.003906-10.203125-4.363281-20.0625 1.964844-30.128906 2.449219-3.898438 1.894531-8.882813-1.355469-12.132813l-10.4375-10.4375c-3.449218-3.453125-8.964844-3.824219-12.835937-.871093-11.679688 8.921874-23.527344 8.835937-37.285157-.269532-3.625-2.394531-8.304687-2.394531-11.929687.003906-13.757813 9.101563-25.605469 9.1875-37.285156.265626-3.867188-2.953126-9.382813-2.582032-12.832031.867187l-10.441407 10.441406c-3.246093 3.246094-3.804687 8.234375-1.355469 12.128907 6.328126 10.070312 6.972657 19.929687 1.96875 30.132812zm8.738282 26.5c-.003906-5.949219 1.5-13.277344 4.742187-19.890625 6.769531-13.804687 6.554688-27.613281-.628906-41.101563l4.488281-4.488281c15.097656 9.644531 31.761719 9.359375 48.570313-.863281 16.8125 10.21875 33.476562 10.507812 48.574219.863281l4.484374 4.488281c-7.183593 13.488282-7.398437 27.296876-.625 41.101563 2.714844 5.539063 4.273438 11.453125 4.636719 17.582031 1.761719 29.703125-14.203125 50.253906-50.234375 64.679688-4.40625 1.765625-9.261718 1.765625-13.671875 0-39.730469-15.902344-50.335937-36.953125-50.335937-62.371094zm0 0"/><path d="m509.890625 97.425781c-6.511719-17.628906-13.269531-36.289062-23.378906-51.972656-8.550781-13.261719-24.972657-18.875-39.933594-13.652344-21.335937 7.457031-42.800781 8.226563-65.171875-1.957031-59.199219-26.945312-114.761719-38.636719-178.144531-20.863281-3.992188 1.121093-6.320313 5.265625-5.199219 9.257812 1.117188 3.992188 5.261719 6.316407 9.253906 5.203125 59.664063-16.738281 111.679688-5.507812 167.871094 20.070313 23.777344 10.820312 49.039062 12.007812 76.34375 2.464843 8.386719-2.933593 17.582031.199219 22.359375 7.613282 8.910156 13.820312 15.234375 30.941406 21.347656 47.503906.042969.410156 5.558594 11.039062-3.101562 21.023438-20.910157 24.113281-38.886719 75.214843-55.53125 102.511718h-362.394531c-16.527344-27.101562-34.121094-77.035156-54.710938-101.542968-5.105469-6.078126-5.953125-14.808594-2.109375-21.71875 9.597656-17.261719 22.871094-35.359376 37.371094-50.964844 5.207031-5.601563 13.371093-7.5 20.804687-4.839844 25.066406 8.980469 50.847656 10.085938 77.511719-2.050781 8.921875-4.0625 17.9375-7.792969 26.800781-11.085938 3.886719-1.445312 5.867188-5.765625 4.421875-9.652343-1.445312-3.886719-5.769531-5.867188-9.652343-4.421876-9.195313 3.417969-18.546876 7.285157-27.789063 11.492188-22.765625 10.359375-44.453125 9.382812-66.230469 1.582031-13.09375-4.6875-27.566406-1.25-36.863281 8.757813-15.300781 16.460937-29.328125 35.597656-39.496094 53.886718-6.851562 12.316407-5.347656 27.859376 3.734375 38.671876 19.234375 22.898437 37.328125 74.304687 54.566406 101.59375v44.78125l-10.796874 8.347656c-13.300782 10.28125-9.765626 31.3125 6.167968 36.632812 24.125 8.054688 48.617188 14.722656 72.796875 19.820313 4.0625.855469 8.042969-1.742188 8.894531-5.796875.855469-4.058594-1.738281-8.039063-5.796874-8.894532-23.621094-4.980468-47.554688-11.496093-71.136719-19.371093-4.546875-1.519531-5.574219-7.546875-1.738281-10.511719l11.683593-9.035156h365.53125l11.683594 9.035156c3.832031 2.964844 2.808594 8.992188-1.738281 10.511719-95.101563 31.757812-191.527344 40.011719-286.597656 24.539062-4.09375-.667969-7.949219 2.109375-8.617188 6.203125s2.113281 7.949219 6.203125 8.613282c99.195313 16.148437 198.058594 6.847656 293.765625-25.113282 15.945312-5.324218 19.457031-26.355468 6.167969-36.636718l-10.796875-8.347657v-44.777343c17.429687-27.597657 35.777344-79.941407 55.234375-102.378907 8.292969-9.558593 10.746093-22.792969 6.410156-34.53125zm-432.304687 177.871094v-35.652344h355.644531v35.652344zm0 0"/></svg>