<?xml version="1.0" encoding="iso-8859-1"?>
<!-- Generator: Adobe Illustrator 19.0.0, SVG Export Plug-In . SVG Version: 6.00 Build 0)  -->
<svg version="1.1" id="Capa_1" xmlns="http://www.w3.org/2000/svg" xmlns:xlink="http://www.w3.org/1999/xlink" x="0px" y="0px"
	 viewBox="0 0 511.998 511.998" style="enable-background:new 0 0 511.998 511.998;" xml:space="preserve">
<polygon style="fill:#755E51;" points="253.99,432.844 253.99,287.653 317.97,324.598 379.719,360.244 379.719,505.433 "/>
<polygon style="fill:#917464;" points="375.701,360.245 501.44,287.654 501.44,432.844 375.701,505.433 "/>
<g>
	<polygon style="fill:#BF9984;" points="312.946,326.34 436.799,254.832 437.733,253.202 503.449,291.135 377.71,363.725 	"/>
	<polygon style="fill:#BF9984;" points="251.981,291.135 377.71,218.545 441.214,255.211 439.749,257.77 316.965,328.659 	"/>
</g>
<polygon style="fill:#755E51;" points="10.559,432.844 10.559,287.654 74.549,324.589 136.298,360.245 136.298,505.433 "/>
<polygon style="fill:#917464;" points="132.279,360.245 258.009,287.654 258.009,432.844 132.279,505.433 "/>
<g>
	<polygon style="fill:#BF9984;" points="69.525,326.33 193.368,254.832 194.302,253.202 260.018,291.135 134.289,363.725 	"/>
	<polygon style="fill:#BF9984;" points="8.548,291.135 134.289,218.545 197.783,255.211 196.317,257.77 73.544,328.649 	"/>
</g>
<polygon style="fill:#755E51;" points="194.039,257.691 132.279,222.025 132.279,76.835 258.009,149.435 258.009,294.615 "/>
<polygon style="fill:#917464;" points="253.99,149.435 379.719,76.836 379.719,222.025 253.99,294.615 "/>
<g>
	<polygon style="fill:#BF9984;" points="191.236,115.521 315.088,44.014 316.023,42.384 381.729,80.316 255.999,152.916 	"/>
	<polygon style="fill:#BF9984;" points="130.27,80.316 255.999,7.727 319.503,44.393 318.038,46.952 195.255,117.841 	"/>
</g>
<path d="M441.166,413.64l-36.521,21.083c-4.805,2.774-6.452,8.919-3.677,13.724c1.861,3.223,5.238,5.026,8.711,5.026
	c1.704,0,3.431-0.435,5.013-1.348l36.521-21.083c4.805-2.774,6.452-8.919,3.677-13.724
	C452.118,412.514,445.975,410.866,441.166,413.64z"/>
<path d="M2.521,431.683c0,3.59,1.915,6.906,5.024,8.701l121.721,70.268c0.024,0.014,0.051,0.023,0.075,0.037
	c0.358,0.203,0.725,0.387,1.108,0.546c0.023,0.009,0.046,0.016,0.069,0.025c0.345,0.14,0.7,0.257,1.063,0.359
	c0.099,0.028,0.199,0.052,0.298,0.076c0.296,0.073,0.598,0.132,0.904,0.178c0.103,0.016,0.206,0.035,0.31,0.047
	c0.392,0.046,0.79,0.077,1.194,0.077c0.404,0,0.802-0.031,1.194-0.077c0.104-0.012,0.207-0.032,0.31-0.047
	c0.306-0.046,0.607-0.104,0.903-0.178c0.1-0.025,0.2-0.049,0.3-0.077c0.361-0.1,0.714-0.218,1.057-0.357
	c0.025-0.01,0.05-0.017,0.075-0.028c0.382-0.158,0.749-0.342,1.104-0.544c0.025-0.014,0.052-0.024,0.078-0.038l116.687-67.369
	l116.687,67.369c0.026,0.015,0.053,0.024,0.079,0.039c0.356,0.202,0.722,0.385,1.103,0.543c0.026,0.011,0.053,0.018,0.079,0.029
	c0.342,0.139,0.694,0.255,1.054,0.356c0.1,0.028,0.201,0.052,0.301,0.077c0.295,0.073,0.597,0.132,0.902,0.178
	c0.103,0.016,0.207,0.035,0.311,0.047c0.392,0.046,0.789,0.077,1.194,0.077c0.405,0,0.802-0.031,1.194-0.077
	c0.104-0.012,0.207-0.032,0.311-0.047c0.305-0.046,0.607-0.104,0.902-0.178c0.1-0.025,0.201-0.049,0.301-0.077
	c0.36-0.1,0.711-0.217,1.054-0.356c0.026-0.01,0.053-0.018,0.079-0.029c0.381-0.158,0.747-0.342,1.103-0.543
	c0.026-0.015,0.053-0.024,0.079-0.039l121.721-70.268c3.109-1.794,5.024-5.111,5.024-8.701V291.135c0-0.03-0.006-0.058-0.006-0.088
	c-0.003-0.409-0.027-0.818-0.081-1.227c-0.004-0.027-0.01-0.054-0.014-0.081c-0.051-0.366-0.127-0.729-0.219-1.091
	c-0.026-0.101-0.055-0.2-0.083-0.3c-0.084-0.292-0.184-0.581-0.296-0.868c-0.039-0.098-0.074-0.199-0.116-0.296
	c-0.154-0.358-0.324-0.711-0.522-1.057c-0.006-0.01-0.012-0.021-0.018-0.031c-0.199-0.344-0.42-0.666-0.652-0.977
	c-0.063-0.085-0.133-0.166-0.199-0.248c-0.192-0.241-0.393-0.471-0.604-0.691c-0.072-0.075-0.144-0.15-0.218-0.222
	c-0.267-0.262-0.546-0.509-0.838-0.737c-0.021-0.016-0.04-0.035-0.061-0.051c-0.327-0.25-0.668-0.476-1.021-0.683
	c-0.026-0.015-0.049-0.035-0.075-0.05l-116.696-67.369V80.316c0-0.029-0.005-0.056-0.006-0.085
	c-0.003-0.411-0.028-0.822-0.082-1.233c-0.003-0.021-0.008-0.041-0.011-0.061c-0.051-0.374-0.129-0.744-0.224-1.114
	c-0.024-0.095-0.052-0.19-0.079-0.285c-0.086-0.299-0.188-0.596-0.303-0.89c-0.036-0.092-0.069-0.186-0.107-0.276
	c-0.157-0.365-0.329-0.726-0.533-1.079c-0.203-0.352-0.429-0.68-0.666-0.998c-0.06-0.081-0.127-0.158-0.19-0.237
	c-0.195-0.245-0.399-0.479-0.613-0.701c-0.07-0.073-0.141-0.147-0.213-0.218c-0.268-0.263-0.548-0.511-0.84-0.739
	c-0.02-0.016-0.039-0.034-0.059-0.05c-0.328-0.251-0.67-0.477-1.024-0.685c-0.025-0.015-0.047-0.034-0.072-0.048L261.023,1.346
	c-3.108-1.794-6.938-1.795-10.047,0l-121.71,70.268c-0.024,0.014-0.044,0.031-0.068,0.045c-0.356,0.209-0.7,0.436-1.031,0.69
	c-0.016,0.012-0.03,0.026-0.046,0.039c-0.297,0.231-0.581,0.484-0.853,0.751c-0.071,0.07-0.141,0.142-0.21,0.214
	c-0.214,0.223-0.418,0.457-0.613,0.702c-0.063,0.079-0.13,0.157-0.191,0.239c-0.237,0.316-0.462,0.646-0.665,0.997
	c-0.203,0.352-0.375,0.711-0.531,1.075c-0.04,0.094-0.074,0.192-0.113,0.287c-0.114,0.29-0.214,0.582-0.299,0.877
	c-0.028,0.097-0.056,0.195-0.082,0.293c-0.093,0.365-0.17,0.732-0.221,1.101c-0.003,0.025-0.01,0.048-0.013,0.073
	c-0.054,0.409-0.078,0.82-0.081,1.229c0,0.029-0.006,0.058-0.006,0.087v134.749L7.545,282.433c-0.025,0.014-0.046,0.033-0.07,0.047
	c-0.355,0.208-0.699,0.435-1.028,0.688c-0.016,0.012-0.031,0.027-0.047,0.039c-0.297,0.231-0.58,0.483-0.852,0.751
	c-0.072,0.07-0.141,0.143-0.211,0.215c-0.213,0.222-0.417,0.455-0.612,0.7c-0.064,0.08-0.132,0.159-0.193,0.241
	c-0.234,0.313-0.456,0.638-0.657,0.985c-0.003,0.005-0.007,0.01-0.01,0.016c-0.201,0.35-0.373,0.706-0.527,1.068
	c-0.041,0.096-0.076,0.196-0.115,0.294c-0.113,0.287-0.212,0.578-0.297,0.87c-0.029,0.099-0.057,0.198-0.083,0.298
	c-0.093,0.363-0.169,0.727-0.22,1.094c-0.004,0.026-0.01,0.052-0.014,0.079c-0.054,0.409-0.078,0.819-0.081,1.229
	c0,0.029-0.006,0.057-0.006,0.086v140.549H2.521z M22.615,308.536l43.286,24.989c1.341,1.397,3.026,2.352,4.845,2.797l53.496,30.884
	v117.345L22.615,425.883V308.536z M187.595,122.699c1.348,1.411,3.047,2.373,4.881,2.818l53.477,30.879v117.337l-101.616-58.667
	V97.719L187.595,122.699z M357.616,80.316l-101.616,58.677l-40.648-23.471L316.97,56.849L357.616,80.316z M479.334,291.135
	L377.71,349.803l-40.646-23.467l101.618-58.67L479.334,291.135z M134.289,349.803l-40.653-23.469l101.617-58.669l40.652,23.47
	L134.289,349.803z M266.047,308.536l43.285,24.99c1.337,1.393,3.02,2.345,4.836,2.792l53.495,30.885v117.346l-101.615-58.666
	V308.536z M316.97,314.734l-40.877-23.601l101.616-58.667l40.878,23.599L316.97,314.734z M367.663,215.065l-101.616,58.667V156.396
	L367.663,97.72V215.065z M134.288,232.467l40.872,23.597l-101.62,58.668l-40.876-23.598L134.288,232.467z M144.336,484.55V367.205
	l101.616-58.669v117.347L144.336,484.55z M387.757,484.551V367.205l101.626-58.669v117.347L387.757,484.551z M255.999,21.648
	l40.877,23.6l-101.619,58.67l-40.875-23.602L255.999,21.648z"/>
<path d="M471.342,399.171c-12.93,0-12.951,20.094,0,20.094C484.271,419.265,484.293,399.171,471.342,399.171z"/>
<g>
</g>
<g>
</g>
<g>
</g>
<g>
</g>
<g>
</g>
<g>
</g>
<g>
</g>
<g>
</g>
<g>
</g>
<g>
</g>
<g>
</g>
<g>
</g>
<g>
</g>
<g>
</g>
<g>
</g>
</svg>
