<svg height="512" viewBox="0 0 512 512" width="512" xmlns="http://www.w3.org/2000/svg"><g><g><path d="m496 104v332a19.994 19.994 0 0 1 -20 20h-440a19.994 19.994 0 0 1 -20-20v-332z" fill="#e0e0e2"/><g fill="#cca400"><path d="m96 304h80a24 24 0 0 0 0-48h-80"/><path d="m96 208h80a24 24 0 0 0 0-48h-80"/><path d="m176 352h-80a24 24 0 0 0 0 48h80"/></g><path d="m496 76v28h-480v-28a19.994 19.994 0 0 1 20-20h440a19.994 19.994 0 0 1 20 20z" fill="#57565c"/><circle cx="96" cy="280" fill="#ffda44" r="24"/><circle cx="96" cy="184" fill="#ffda44" r="24"/><circle cx="176" cy="376" fill="#ffda44" r="24"/></g><g><path d="m476 48h-440a28.032 28.032 0 0 0 -28 28v360a28.032 28.032 0 0 0 28 28h440a28.032 28.032 0 0 0 28-28v-360a28.032 28.032 0 0 0 -28-28zm-440 16h440a12.013 12.013 0 0 1 12 12v20h-464v-20a12.013 12.013 0 0 1 12-12zm440 384h-440a12.013 12.013 0 0 1 -12-12v-324h464v324a12.013 12.013 0 0 1 -12 12z"/><path d="m40 88h8a8 8 0 0 0 0-16h-8a8 8 0 0 0 0 16z"/><path d="m72 88h8a8 8 0 0 0 0-16h-8a8 8 0 0 0 0 16z"/><path d="m104 88h8a8 8 0 0 0 0-16h-8a8 8 0 0 0 0 16z"/><path d="m176 248h-80a32 32 0 0 0 0 64h80a32 32 0 0 0 0-64zm-96 32a16 16 0 1 1 16 16 16.019 16.019 0 0 1 -16-16zm96 16h-52.3a31.885 31.885 0 0 0 0-32h52.3a16 16 0 0 1 0 32z"/><path d="m440 248h-184a8 8 0 0 0 0 16h184a8 8 0 0 0 0-16z"/><path d="m440 272h-184a8 8 0 0 0 0 16h184a8 8 0 0 0 0-16z"/><path d="m256 312h112a8 8 0 0 0 0-16h-112a8 8 0 0 0 0 16z"/><path d="m400 312a8 8 0 0 0 0-16h-8a8 8 0 0 0 0 16z"/><path d="m176 152h-80a32 32 0 0 0 0 64h80a32 32 0 0 0 0-64zm-96 32a16 16 0 1 1 16 16 16.019 16.019 0 0 1 -16-16zm96 16h-52.3a31.885 31.885 0 0 0 0-32h52.3a16 16 0 0 1 0 32z"/><path d="m440 152h-184a8 8 0 0 0 0 16h184a8 8 0 0 0 0-16z"/><path d="m440 176h-184a8 8 0 0 0 0 16h184a8 8 0 0 0 0-16z"/><path d="m256 216h112a8 8 0 0 0 0-16h-112a8 8 0 0 0 0 16z"/><path d="m400 216a8 8 0 0 0 0-16h-8a8 8 0 0 0 0 16z"/><path d="m176 344h-80a32 32 0 0 0 0 64h80a32 32 0 0 0 0-64zm-96 32a16.019 16.019 0 0 1 16-16h52.305a31.885 31.885 0 0 0 0 32h-52.305a16.019 16.019 0 0 1 -16-16zm96 16a16 16 0 1 1 16-16 16.019 16.019 0 0 1 -16 16z"/><path d="m440 344h-184a8 8 0 0 0 0 16h184a8 8 0 0 0 0-16z"/><path d="m440 368h-184a8 8 0 0 0 0 16h184a8 8 0 0 0 0-16z"/><path d="m368 392h-112a8 8 0 0 0 0 16h112a8 8 0 0 0 0-16z"/><path d="m400 392h-8a8 8 0 0 0 0 16h8a8 8 0 0 0 0-16z"/></g></g></svg>